<svg id="Calque_1" xmlns="http://www.w3.org/2000/svg" viewBox="0 0 578.6 148.2"><style>.st0{fill:#51becc}.st1{fill:#00688a}</style><path class="st0" d="M7.5 0C3.3 0 0 3.2 0 7.3c0 4.3 3.3 7.3 7.5 7.3 4.3 0 7.6-3 7.6-7.3 0-4.1-3.3-7.3-7.6-7.3z"/><path class="st1" d="M2.1 35.2h10.8v73.5H2.1zm50.7 0H42v113h10.9v-4.5h-.1zm26.6-1.9c-7.9 0-14.8 2-20.6 5.7v10.8c5.5-4.7 12.1-6.9 19.3-6.9 16.1 0 28.5 13.4 28.5 29.1 0 15.9-12.4 29.3-28.5 29.3-7.3 0-13.9-2.3-19.3-6.9v10.8c5.8 3.6 12.7 5.7 20.6 5.7 21.2 0 38-17.2 38-38.8.1-21.6-16.8-38.8-38-38.8zm120.2 10.2c-6.7-6.4-15.6-10.2-26.6-10.2-21 0-38 17.2-38 38.7 0 21.6 17 38.8 38 38.8 11 0 19.9-3.8 26.6-10.2v8.1h10.8V35.2h-10.8v8.3zm0 44.4c-6.2 8.9-15.1 13.4-25.2 13.4-16.2 0-28.5-13.4-28.5-29.3 0-15.8 12.3-29.1 28.5-29.1 10 0 19 4.4 25.2 13.4v31.6zm37.7-52.7h10.6v73.5h-10.6zm38.1-2.4c-8 0-15.4 2.3-21.4 6.3v11.1c5.7-4.8 12.7-7.4 19.5-7.4 13.4 0 22.4 8.8 22.4 24v41.9h10.8V66.4c0-20.7-12.9-33.6-31.3-33.6zm89.9.5c-22.1 0-39.2 16.9-39.2 38.7 0 22.1 17 39.2 39.2 39.2 22 0 39-17 39-39.2 0-21.9-17-38.7-39-38.7zm0 67.9c-16.1 0-28.2-13-28.2-29.3 0-15.8 12.1-28.7 28.2-28.7s28.2 12.9 28.2 28.7c0 16.3-12.1 29.3-28.2 29.3zm59.4-66H413l35.1 73.5h10l.6-1.2-10.6-22.9zm56.6 0l-25 52.8 5.7 12.4 31.1-65.2zm84.7 77.3h10.8V35.2H566v8.3c-6.7-6.4-15.6-10.2-26.6-10.2-21 0-38 17.2-38 38.7 0 21.6 17 38.8 38 38.8 11 0 19.9-3.8 26.6-10.2v11.9zm-25.1-11.3c-16.2 0-28.5-13.4-28.5-29.3 0-15.8 12.3-29.1 28.5-29.1 10 0 19 4.4 25.2 13.4v31.7c-6.3 8.9-15.2 13.3-25.2 13.3z"/><path class="st0" d="M570.9 131.1c-4.2 0-7.5 3.2-7.5 7.3 0 4.3 3.3 7.3 7.5 7.3 4.3 0 7.6-3 7.6-7.3.1-4.1-3.3-7.3-7.6-7.3z"/></svg>